<svg width="32" height="32" viewBox="0 0 32 32" xmlns="http://www.w3.org/2000/svg">
  <!-- Square background -->
  <rect width="32" height="32" rx="6" fill="#0f172a"/>
  <!-- TripWeave logo scaled to fit square, centered -->
  <g transform="translate(1, 8) scale(0.361)">
    <path
      d="M19.6859 -0.00136721C16.4936 -0.00136721 13.3013 1.27863 11.0667 3.6253L3.61795 11.092C1.27692 13.332 0 16.532 0 19.732C0 26.452 5.42692 31.9986 12.2372 31.9986C15.4295 31.9986 18.6218 30.7186 20.8564 28.372L26.0705 23.1453L41.1808 7.99863C42.2449 6.93196 43.7346 6.29197 45.3308 6.29197C47.8846 6.29197 50.1192 7.99863 50.8641 10.3453L55.6526 5.5453C53.5244 2.13196 49.6936 -0.108032 45.3308 -0.108032C42.1385 -0.108032 38.9461 1.17197 36.7115 3.51863L16.4936 23.7853C15.4295 24.852 13.9397 25.492 12.3436 25.492C9.15128 25.492 6.49102 22.8253 6.49102 19.6253C6.49102 18.0253 7.12949 16.6386 8.19359 15.4653L15.6423 7.99863C16.7064 6.93196 18.1961 6.29197 19.7923 6.29197C22.3461 6.29197 24.5808 7.99863 25.3256 10.3453L30.1141 5.5453C27.8795 2.23863 24.0487 -0.00136721 19.6859 -0.00136721Z"
      fill="url(#a)"
    />
    <path
      d="M41.9259 23.8917C40.8618 24.9584 39.3721 25.5984 37.7759 25.5984C35.2221 25.5984 32.9874 23.8917 32.2426 21.5451L27.4541 26.3451C29.5823 29.7584 33.4131 31.9984 37.7759 31.9984C40.9682 31.9984 44.1605 30.7184 46.3951 28.3717L66.6131 8.10508C67.6772 7.03841 69.1669 6.39841 70.7631 6.39841C73.9554 6.39841 76.6157 9.06508 76.6157 12.2651C76.6157 13.8651 75.9772 15.2517 74.9131 16.4251L67.4644 23.8917C66.4003 24.9584 64.9105 25.5984 63.3144 25.5984C60.7605 25.5984 58.5259 23.8917 57.781 21.5451L52.9926 26.3451C55.1208 29.7584 58.9515 31.9984 63.3144 31.9984C66.5067 31.9984 69.699 30.7184 71.9336 28.3717L79.3823 20.9051C81.7233 18.6651 83.0003 15.4651 83.0003 12.2651C83.0003 5.54508 77.5733 -0.00158691 70.7631 -0.00158691C67.5708 -0.00158691 64.3785 1.27841 62.1439 3.62508L41.9259 23.8917Z"
      fill="url(#b)"
    />
    <defs>
      <linearGradient id="a" x1="27.8263" y1="-0.108032" x2="27.8263" y2="31.9986" gradientUnits="userSpaceOnUse">
        <stop stop-color="#13BFB0"/>
        <stop offset="1" stop-color="#B9EEEA"/>
      </linearGradient>
      <linearGradient id="b" x1="55.2272" y1="-0.00158691" x2="55.2272" y2="31.9984" gradientUnits="userSpaceOnUse">
        <stop stop-color="#37BBAF"/>
        <stop offset="1" stop-color="#A6EDE6"/>
      </linearGradient>
    </defs>
  </g>
</svg>
